<?xml version="1.0" encoding="utf-8"?>
<!-- Generator: Adobe Illustrator 19.0.0, SVG Export Plug-In . SVG Version: 6.00 Build 0)  -->
<svg version="1.1" id="layer" xmlns="http://www.w3.org/2000/svg" xmlns:xlink="http://www.w3.org/1999/xlink" x="0px" y="0px"
	 viewBox="-153 -46 652 652" style="enable-background:new -153 -46 652 652;" xml:space="preserve">
<style type="text/css">
	.st0{fill:#032B76;}
	.st1{fill:#0A0A08;}
	.st2{fill:#969998;}
	.st3{fill:#0D5DB8;}
	.st4{fill:#FFFFFF;}
</style>
<g id="Documents">
	<g id="Header" transform="translate(-10.000000, -24.000000)">
		<g>
			<g id="Copart-Logo" transform="translate(10.000000, 24.000000)">
				<g id="Copart-Logo-RGB">
					<g id="Group-5" transform="translate(24.038509, 0.000000)">
						<g id="Clip-2">
						</g>
						<path id="Fill-1" class="st0" d="M435.8,275.1C405.7,337,272.5,387.3,139.4,387.3C6.1,387.3-78,337-47.9,275.1
							c30-61.6,163.3-112.1,296.4-112.1C381.8,163,465.9,213.5,435.8,275.1z"/>
						<path id="Fill-3" class="st1" d="M245.6,165.4c129.5,0,211,48.9,181.6,108.8c-29.3,60-159,108.9-288.2,108.9
							c-129.5,0-211-48.9-181.7-108.9c19-38.6,79.3-72.4,154.4-91.8c5.3-1.4,10.8-2.6,16.2-3.9C165.2,170.1,205.4,165.4,245.6,165.4
							"/>
						<path id="Fill-4" class="st2" d="M243.6,168.6c127.9,0,208.5,47.2,179.6,104.9c-28.9,57.9-156.6,105-284.4,105
							c-127.9,0-208.5-47.1-179.6-105C-12,215.8,115.9,168.6,243.6,168.6"/>
					</g>
					<path id="Fill-6" class="st1" d="M247.3,178.5c115.5,0,188.2,42.2,162,93.9c-26.2,51.8-141.8,94-257.1,94
						c-115.5,0-188.2-42.2-162.1-94c17-33.3,70.8-62.5,137.7-79.3c4.8-1.3,9.6-2.3,14.5-3.4C175.6,182.6,211.5,178.5,247.3,178.5"/>
					<g id="Group-10" transform="translate(0.000000, 6.172050)">
						<path id="Fill-7" class="st3" d="M390.3,223.8c5.5,9.2,6.6,19.6,2.2,30.4c-4.1,8.2-8.8,14.8-15.9,21.4
							c-36.4,33.7-118.5,58.8-200.4,58.8c-96.6,0-157.5-34.9-135.5-77.7c15.1-29.5,66.3-56.2,127.7-69.5c7.2-1.6,14.6-2.8,22-3.9
							c-14.4,1.4-28.6,3.6-42.4,6.6c-68,15-125.7,39.2-142.5,72.8c-24.3,48.8,43.1,88.6,150.3,88.6c87.8,0,175.7-26.7,217.9-63.2
							c4.8-4.1,10.4-9.9,14.7-16.1c1.8-2.5,3.4-5,4.7-7.6C400.7,249.7,399.3,235.8,390.3,223.8"/>
						<path id="Fill-9" class="st4" d="M-67.1,258.5c-2,3.2-4.1,5.6-6.1,7.1l-0.1,0.1c-2.3,1.8-5.3,2.7-9,2.7c-2.4,0-4-0.5-4.5-1.3
							c0-0.1-1.1-3.1,2.2-13.7c2.2-6.8,4.7-11.6,7.6-14.4c3.5-3.5,7.3-5.2,11.9-5.2c1.4,0,2.6,0.2,3.4,0.6c0.5,0.3,1,0.6,1.2,2.5
							l0.7,7.8h36.7c-2.3,3.1-4.3,6.3-5.9,9.8h-35.6L-67.1,258.5L-67.1,258.5z M21.9,260.8c-1.4,4.4-3.1,7.5-5.1,9.2
							c-2,1.6-3.7,2.3-5.5,2.3c-0.4,0-0.6,0-0.7-0.1c-0.1-0.5-0.2-2.2,1-6.1c1.2-4,2.9-7,5-8.7c1.9-1.5,3.7-2.2,5.7-2.2
							c0.2,0,0.4,0,0.6,0C22.9,255.7,22.9,257.3,21.9,260.8L21.9,260.8z M109.6,260.7c-1.1,3.9-2.6,6.7-4.3,8.1
							c-1.3,1.1-2.4,1.7-3.4,1.7c-0.1,0-0.2,0-0.3,0c0-0.7,0.2-2,0.9-4.3c1.5-4.9,3.2-7.1,4.4-8c1.3-1.1,2.5-1.7,3.7-1.8
							C110.5,257.2,110.3,258.5,109.6,260.7L109.6,260.7L109.6,260.7z M367.6,222.4l9.7-31.2l-50,20.8l-1.3,0.5l-3.1,9.9H313
							l-0.4,1.3c-4.2-1.9-8.3-2.8-12.6-2.8c-3.4,0-6.6,0.5-9.5,1.5h-39.2l-7.4,23.7c0-1,0-2-0.1-3c-0.4-5.1-2.2-9.7-5.1-12.8
							c-3.6-4.2-8.8-6.9-15.3-8c-4.8-1-11.3-1.4-20.5-1.4c-5.4,0-10.5,0.4-15.6,1.1c-5.7,0.9-10,2-13.2,3.7c-4.9,2.1-8.9,4.7-12,7.7
							c-2.7,2.5-5.2,5.7-7.6,9.7c-0.5-2.5-1.2-4.9-2.2-7.2c-3.2-6.8-10.3-14.9-26.4-14.9c-4,0-7.7,0.5-11.4,1.5l0,0H71.5l-6.2,19.7
							c-0.7-2-1.7-4-2.8-5.9c-6.4-10.1-18.4-15.3-35.4-15.3c-14,0-26.4,3.7-37,11.1c-1.9,1.4-3.8,2.8-5.5,4.4v-0.1
							c0-14.5-3.9-24.8-12.1-31.4c-7.1-6-17.5-9-31.9-9c-17.1,0-32.2,4.6-44.8,13.7c-12.5,9.1-21.5,22.2-26.5,38.7
							c-4.1,12.9-4.5,24-1.4,33c3.4,9.4,9.1,16,16.8,19.8c6.9,3.5,16.4,5.2,28.1,5.2c9.7,0,18.3-1.4,25.3-4.1
							c7.1-2.6,13.9-6.6,20.1-12c2.8-2.5,5.9-5.9,8.8-9.5c1.5,7,5.2,12,8.1,14.9c7,7,17.3,10.5,30.8,10.5c14.2,0,26.8-3.8,37.4-11.2
							c2.6-1.9,5.1-3.9,7.4-6.1L38,329.5h44.8l8.1-25.8c3.9,1.6,8.4,2.5,13.4,2.5c10.4,0,20.2-3.5,29-10.4c2.5-2,4.9-4.3,7-6.8
							c0.8,3.2,2.4,6.2,4.7,8.8c4.9,5.6,12.7,8.4,23.6,8.4c7.2,0,14-1.1,20.2-3.2c1-0.4,2-0.8,3.1-1.2l1,2.9h77.2l8.7-27.9
							c3.6-11.5,7-16.2,8.6-17.9c1.6-1.4,2.7-1.6,3.6-1.6c0.1,0,1.1,0,3.5,1.1l6,2.7l2.9-3.4l8.4,0l-3.7,11.8
							c-2.9,8.8-3.9,15.1-3.1,19.7c0.8,5.7,3.9,10.4,8.7,13.3c4.1,2.5,9.9,3.6,18.5,3.6c6.2,0,13.2-0.7,20.7-2.2l3.6-0.7l1.9-0.4
							l7.5-36.8l-13.4,3.9l3.8-12.4h14.7l11-35.3H367.6L367.6,222.4z"/>
					</g>
					<path id="Fill-11" class="st1" d="M-63.4,263l-1.8,2.9c-2.2,3.5-4.4,6-6.7,7.7c-2.7,2.1-6.2,3.2-10.4,3.2
						c-3.4,0-5.5-0.8-6.5-2.5c-0.3-0.5-1.6-3.8,2-15.5c2.3-7.1,5.1-12.3,8.2-15.3c3.9-3.9,8.3-5.8,13.5-5.8c1.9,0,3.4,0.3,4.5,0.9
						c1.3,0.7,2.1,1.7,2.3,4.3l0.5,5.7h39.5c-3.9,4.3-7,9.1-9.2,14.3H-63.4L-63.4,263z M24.1,267.6c-1.5,4.9-3.5,8.3-5.8,10.2
						c-2.4,1.9-4.6,2.9-6.9,2.9c-2,0-2.5-0.7-2.7-1.2c-0.1-0.2-1-1.9,0.9-7.9c1.3-4.4,3.2-7.7,5.7-9.8c2.3-1.9,4.6-2.7,7.2-2.7
						c1.9,0,2.2,0.6,2.6,1.2C24.9,260.3,25.8,261.9,24.1,267.6L24.1,267.6z M100.3,271.7c1.3-4.3,3.1-7.5,5.2-9.1
						c2-1.6,3.8-2.4,5.9-2.4c1,0,1.1,0.1,1.3,0.6c0.2,0.4,0.5,2.3-1,6.7c-1.3,4.3-3,7.5-5,9.2c-1.7,1.5-3.3,2.2-4.9,2.2
						c-1.9,0-2.2-0.5-2.4-0.9C99.5,278,98.8,276.6,100.3,271.7L100.3,271.7z M150.7,270.5c0.9-3.2,1.5-6.4,1.8-9.4l11.9,1.2
						c-4.3,1.5-7.8,3.3-10.7,5.5C152.7,268.7,151.7,269.6,150.7,270.5L150.7,270.5z M369.5,261.6l9.6-30.8h-14.6l9.2-29.5l-45.9,19
						l-3.3,10.5h-9.9l-0.7,2.2c-4.7-2.5-9.3-3.7-14-3.7c-3.3,0-6.3,0.5-9.2,1.5h-37.9l-22.5,71.8l-0.2-1.3c-0.5-3-0.6-4.5-0.5-5.3
						c0.1-0.8,0.3-2.4,1.3-5.8l9-28.8c1.3-3.8,1.7-7.7,1.4-12.1c-0.3-4.6-1.9-8.7-4.5-11.4c-3.3-3.8-8-6.2-14-7.3
						c-4.7-0.9-11.1-1.4-20.2-1.4c-5.3,0-10.3,0.4-15.2,1.1c-5.5,0.9-9.6,2-12.6,3.5c-4.7,2-8.5,4.5-11.4,7.2
						c-3.1,2.8-5.9,6.6-8.6,11.6l-2.2,4c0-5-0.9-9.7-2.8-13.8c-2.9-6.2-9.4-13.5-24.3-13.5c-5.2,0-10.1,0.9-14.9,2.8l0.4-1.3H73.2
						l-8.4,26.7c-0.2-5.1-1.6-9.8-4.2-14c-6-9.4-17.2-14.2-33.5-14.2c-13.5,0-25.5,3.6-35.7,10.7c-3.4,2.4-6.4,5-9.1,7.8v-5.5
						c0-13.8-3.7-23.5-11.2-29.6c-6.7-5.7-16.6-8.5-30.4-8.5c-16.7,0-31.3,4.5-43.5,13.3c-12.1,8.8-20.8,21.5-25.7,37.5
						c-3.9,12.4-4.4,23.1-1.4,31.5c3.2,8.8,8.5,15,15.6,18.5c6.6,3.3,15.8,5,27.1,5c9.5,0,17.7-1.3,24.5-3.9
						c6.9-2.5,13.4-6.4,19.4-11.6c4-3.6,8.4-8.7,11.8-13.7c0.3,9.2,4.5,15.5,8.1,19.3c6.5,6.5,16.3,9.8,29.2,9.8
						c13.7,0,25.8-3.6,36.1-10.8c5.7-4,10.5-8.8,14.2-14.3l-15.2,48.4h40l8.4-26.6c0.5,0.3,1,0.5,1.5,0.7c3.8,1.7,8.2,2.6,13.2,2.6
						c9.9,0,19.2-3.3,27.6-9.9c3.8-3,7.2-6.7,10.1-10.9c-0.3,6.2,2.3,10.5,4.7,13.2c4.5,5.1,11.7,7.6,21.9,7.6c7,0,13.5-1,19.4-3.1
						c1.7-0.6,3.4-1.3,5.2-2.2l1.3,3.8h73.9l8.2-26.3c3.6-11.5,7-16.6,9.2-18.8c1.7-1.6,3.3-2.3,5.2-2.3c0.5,0,1.8,0.1,4.4,1.3
						l4.5,2l2.5-3l12.6,0l-4.6,14.7c-2.8,8.5-3.7,14.4-3,18.7c0.7,5,3.4,9.2,7.6,11.7c3.7,2.3,9.2,3.3,17.3,3.3
						c6.1,0,12.9-0.7,20.3-2.2l4.1-0.8l6.4-31.6l-10,2.9c-1.4,0.4-2.7,0.8-3.9,1l5.5-17.9H369.5L369.5,261.6z"/>
					<path id="Fill-12" class="st4" d="M-31.8,269.3c-3.1,7.1-9.8,15.6-15.5,20.8c-5.3,4.6-11.1,8.1-17.4,10.4
						c-6.3,2.4-13.8,3.5-22.4,3.5c-10.5,0-18.6-1.5-24.3-4.3c-5.8-2.9-9.9-7.9-12.6-15.1c-2.5-7.1-2.1-16.3,1.5-27.5
						c4.6-14.9,12.4-26.4,23.4-34.4c11.1-8,24.3-12.1,39.8-12.1c12.1,0,20.9,2.3,26.4,7c7.4,6,9,16,9,24.9h-28.2
						c-0.3-4-1.8-7.2-5.5-9.2c-2.1-1.1-4.6-1.7-7.5-1.7c-6.7,0-12.8,2.5-17.9,7.6c-3.9,3.8-7.1,9.7-9.7,17.8
						c-3.1,9.9-3.6,16.8-1.5,20.5c2.1,3.7,6.1,5.6,11.9,5.6c5.7,0,10.5-1.6,14.3-4.6c3-2.2,5.7-5.5,8.1-9.2H-31.8"/>
					<path id="Fill-13" class="st4" d="M30,269.5c-1.9,6.2-4.6,10.5-7.9,13.2c-3.4,2.7-7,4.2-10.8,4.2c-3.8,0-6.5-1.5-8.1-4.2
						c-1.7-2.8-1.6-7.1,0.2-12.9c1.7-5.8,4.3-10,7.8-12.9c3.4-2.7,7.1-4.1,11.1-4.1c3.6,0,6.3,1.4,7.9,4.1
						C31.9,259.7,31.7,263.9,30,269.5L30,269.5z M55.4,246.9c-4.8-7.5-14.2-11.3-28.2-11.3c-12.2,0-23,3.2-32.1,9.6
						c-9.3,6.5-15.4,14.7-18.5,24.7c-3.4,10.7-1.8,19.4,4.6,26c5.2,5.2,13.5,8,24.8,8c12.5,0,23.4-3.3,32.5-9.7
						c9.1-6.4,15.2-14.6,18.4-24.7C59.7,260.6,59.1,253,55.4,246.9L55.4,246.9z"/>
					<path id="Fill-14" class="st4" d="M117.7,269.3c-1.7,5.8-4.1,9.8-7,12.2c-2.9,2.4-5.8,3.7-8.9,3.7c-3.5,0-6.2-1.3-7.7-3.8
						c-1.6-2.5-1.5-6.4,0.1-11.5c1.7-5.6,4.1-9.7,7.2-12.1c3.1-2.5,6.3-3.8,9.8-3.8c3.1,0,5.4,1.1,6.7,3.6
						C119.6,260.1,119.5,264,117.7,269.3L117.7,269.3z M144.4,245.5c-3.1-6.6-9.3-9.9-18.6-9.9c-4.7,0-9.3,0.9-13.8,2.9
						c-3.3,1.4-7.3,4.1-12.1,8.2l3-9.6h-25l-28.2,90.1h26.9l9.8-31.2c1.8,2.6,4.3,4.6,7.3,5.8c3,1.4,6.5,2.1,10.6,2.1
						c8.4,0,16.4-2.9,23.7-8.6c7.4-5.8,12.8-14,16.2-24.9C147.3,260.5,147.3,252.2,144.4,245.5L144.4,245.5z"/>
					<path id="Fill-15" class="st4" d="M203,275.3c-1,3.1-2.3,5.7-4,7.6c-1.7,1.9-4,3.5-7,4.9c-3,1.4-5.9,2.1-9,2.1
						c-2.8,0-4.8-0.7-5.8-1.9c-1.1-1.3-1.4-2.9-0.7-4.8c0.5-1.7,1.7-3.2,3.7-4.6c1.8-1.4,5.7-2.6,11.5-4c4.3-1,8.4-2.1,12.6-3.3
						L203,275.3L203,275.3z M235.2,249.8c-0.2-3.3-1.3-5.9-3-7.8c-2.4-2.7-5.9-4.5-10.5-5.3c-4.6-0.9-11-1.3-18.9-1.3
						c-5,0-9.7,0.3-14.3,1c-4.5,0.7-8.2,1.6-11,3c-4,1.7-7.3,3.8-9.8,6.2c-2.6,2.4-5,5.7-7.3,9.9l24.8,2.5c2-2.9,3.9-4.8,5.9-5.8
						c2.6-1.3,6.1-1.9,10.5-1.9c3.4,0,5.6,0.6,6.6,1.8c0.9,1.3,0.9,3.4,0,6.5c-3.8,1.1-7.2,2.2-10.4,3c-3.3,0.7-10.2,2.1-20.8,4
						c-8.9,1.5-15.4,3.9-19.5,7.1c-4.1,3.2-7,7.3-8.4,12.2c-1.7,5.4-0.9,9.8,2.3,13.4c3.2,3.7,8.9,5.5,17.2,5.5
						c6.3,0,12.1-0.9,17.3-2.7c3.9-1.4,8.1-3.7,12.6-6.7c-0.2,1.8-0.3,3.2-0.3,4.1c0,0.9,0.2,2.2,0.8,3.9h25c-0.5-2.7-0.7-5-0.6-6.7
						c0.1-1.7,0.7-4.1,1.6-7.2l9-28.9C235.1,256.5,235.4,253.3,235.2,249.8L235.2,249.8z"/>
					<path id="Fill-16" class="st4" d="M257.5,237.1h25l-3.3,10.6c3.9-4.6,7.4-7.8,10.5-9.5c3.1-1.8,6.5-2.6,10.3-2.6
						c4,0,7.9,1.1,11.9,3.4L298,256.8c-2.8-1.3-5.1-1.8-7-1.8c-3.5,0-6.6,1.4-9.5,4c-3.9,3.9-7.5,11-10.8,21.5l-6.9,21.9H237
						L257.5,237.1"/>
					<path id="Fill-17" class="st4" d="M363.8,212.2l-7.8,24.9h14.6l-5.7,18.3h-14.7l-7.2,23.2c-0.9,2.7-1.1,4.6-0.9,5.5
						c0.5,1.4,1.7,2.2,4,2.2c1.9,0,4.9-0.6,8.8-1.7l-3.5,17.4c-7,1.4-13.4,2.1-19.1,2.1c-6.7,0-11.4-0.8-14-2.4
						c-2.6-1.6-4.2-4.1-4.7-7.3c-0.6-3.3,0.3-8.6,2.7-15.9l7.2-22.9h-9.9l5.7-18.3h9.9l3.8-12.1L363.8,212.2"/>
				</g>
			</g>
		</g>
	</g>
</g>
</svg>
