<?xml version="1.0" encoding="UTF-8"?>
<!-- Generated by Pixelmator Pro 2.4.5 -->
<svg width="199" height="60" viewBox="0 0 199 60" xmlns="http://www.w3.org/2000/svg" xmlns:xlink="http://www.w3.org/1999/xlink">
    <g id="Group">
        <path id="Palace" fill="#ffffff" fill-rule="evenodd" stroke="none" d="M 165.482422 22.474609 C 167.11525 22.474609 168.697906 22.857742 170.230469 23.624023 C 171.763031 24.390305 172.930328 25.382156 173.732422 26.599609 C 174.505859 27.759773 175.021484 29.113274 175.279297 30.660156 C 175.508469 31.720058 175.623047 33.410145 175.623047 35.730469 L 158.757813 35.730469 C 158.829422 38.065117 159.380859 39.93782 160.412109 41.348633 C 161.443359 42.759445 163.040359 43.464844 165.203125 43.464844 C 167.222672 43.464844 168.833984 42.798836 170.037109 41.466797 C 170.724609 40.693356 171.211594 39.79818 171.498047 38.78125 L 175.300781 38.78125 C 175.200516 39.626305 174.867523 40.568031 174.301758 41.606445 C 173.735992 42.644859 173.102219 43.493484 172.400391 44.152344 C 171.225906 45.298183 169.772141 46.071613 168.039063 46.472656 C 167.108063 46.701824 166.055344 46.816406 164.880859 46.816406 C 162.016266 46.816406 159.588547 45.774422 157.597656 43.69043 C 155.606766 41.606438 154.611328 38.688171 154.611328 34.935547 C 154.611328 31.240215 155.613922 28.239594 157.619141 25.933594 C 159.624359 23.627594 162.245422 22.474609 165.482422 22.474609 Z M 171.648438 32.658203 C 171.490891 30.982414 171.125656 29.643234 170.552734 28.640625 C 169.492828 26.778637 167.723969 25.847656 165.246094 25.847656 C 163.470047 25.847656 161.980469 26.488602 160.777344 27.770508 C 159.574219 29.052414 158.936844 30.681629 158.865234 32.658203 Z M 142.773438 22.324219 C 145.365906 22.324219 147.47493 22.954422 149.100586 24.214844 C 150.726242 25.475266 151.703781 27.645168 152.033203 30.724609 L 148.273438 30.724609 C 148.044266 29.306633 147.521484 28.128586 146.705078 27.19043 C 145.888672 26.252274 144.57814 25.783203 142.773438 25.783203 C 140.309891 25.783203 138.548187 26.986317 137.488281 29.392578 C 136.800781 30.953785 136.457031 32.880196 136.457031 35.171875 C 136.457031 37.477875 136.944 39.41861 137.917969 40.994141 C 138.891937 42.569672 140.424469 43.357422 142.515625 43.357422 C 144.119797 43.357422 145.390945 42.866867 146.329102 41.885742 C 147.267258 40.904617 147.915359 39.561859 148.273438 37.857422 L 152.033203 37.857422 C 151.603516 40.908218 150.529312 43.138992 148.810547 44.549805 C 147.091782 45.960617 144.89325 46.666016 142.214844 46.666016 C 139.207016 46.666016 136.807953 45.566742 135.017578 43.368164 C 133.227203 41.169586 132.332031 38.423195 132.332031 35.128906 C 132.332031 31.089825 133.313141 27.945976 135.275391 25.697266 C 137.23764 23.448555 139.736969 22.324219 142.773438 22.324219 Z M 112.394531 39.876953 C 112.394531 40.994148 112.802734 41.874996 113.619141 42.519531 C 114.435547 43.164066 115.402344 43.486328 116.519531 43.486328 C 117.880219 43.486328 119.197906 43.171227 120.472656 42.541016 C 122.621109 41.495438 123.695313 39.783867 123.695313 37.40625 L 123.695313 34.291016 C 123.222656 34.591797 122.613937 34.842445 121.869141 35.042969 C 121.124344 35.243492 120.39389 35.386719 119.677734 35.472656 L 117.335938 35.773438 C 115.932281 35.959637 114.879562 36.253254 114.177734 36.654297 C 112.988922 37.327477 112.394531 38.401688 112.394531 39.876953 Z M 121.761719 32.056641 C 122.64975 31.942059 123.244141 31.569664 123.544922 30.939453 C 123.716797 30.595703 123.802734 30.101566 123.802734 29.457031 C 123.802734 28.139317 123.333664 27.18327 122.395508 26.588867 C 121.457352 25.994465 120.114594 25.697266 118.367188 25.697266 C 116.347641 25.697266 114.915375 26.241531 114.070313 27.330078 C 113.597656 27.931644 113.289719 28.826817 113.146484 30.015625 L 109.537109 30.015625 C 109.608727 27.179672 110.528961 25.206711 112.297852 24.09668 C 114.066742 22.986649 116.118484 22.431641 118.453125 22.431641 C 121.160172 22.431641 123.358719 22.947262 125.048828 23.978516 C 126.724625 25.009769 127.5625 26.613922 127.5625 28.791016 L 127.5625 42.046875 C 127.5625 42.447918 127.644852 42.77018 127.80957 43.013672 C 127.974289 43.257164 128.321609 43.378906 128.851563 43.378906 C 129.023438 43.378906 129.216797 43.368164 129.431641 43.34668 C 129.646484 43.325195 129.875656 43.292969 130.119141 43.25 L 130.119141 46.107422 C 129.517578 46.279297 129.05925 46.386719 128.744141 46.429688 C 128.429031 46.472656 127.999359 46.494141 127.455078 46.494141 C 126.123047 46.494141 125.15625 46.021488 124.554688 45.076172 C 124.239578 44.574867 124.017578 43.865891 123.888672 42.949219 C 123.100906 43.980476 121.969406 44.875648 120.494141 45.634766 C 119.018875 46.393883 117.393234 46.773438 115.617188 46.773438 C 113.483063 46.773438 111.739265 46.125332 110.385742 44.829102 C 109.032219 43.532871 108.355469 41.910816 108.355469 39.962891 C 108.355469 37.828766 109.021477 36.174484 110.353516 35 C 111.685555 33.825516 113.432938 33.102215 115.595703 32.830078 Z M 99.761719 14.439453 L 103.628906 14.439453 L 103.628906 46 L 99.761719 46 Z M 78.148438 39.876953 C 78.148438 40.994148 78.556633 41.874996 79.373047 42.519531 C 80.189461 43.164066 81.156242 43.486328 82.273438 43.486328 C 83.634125 43.486328 84.951813 43.171227 86.226563 42.541016 C 88.375008 41.495438 89.449219 39.783867 89.449219 37.40625 L 89.449219 34.291016 C 88.976563 34.591797 88.367844 34.842445 87.623047 35.042969 C 86.87825 35.243492 86.147789 35.386719 85.431641 35.472656 L 83.089844 35.773438 C 81.686188 35.959637 80.633469 36.253254 79.931641 36.654297 C 78.742836 37.327477 78.148438 38.401688 78.148438 39.876953 Z M 87.515625 32.056641 C 88.403648 31.942059 88.998047 31.569664 89.298828 30.939453 C 89.470703 30.595703 89.556641 30.101566 89.556641 29.457031 C 89.556641 28.139317 89.08757 27.18327 88.149414 26.588867 C 87.211258 25.994465 85.8685 25.697266 84.121094 25.697266 C 82.101555 25.697266 80.669273 26.241531 79.824219 27.330078 C 79.351563 27.931644 79.043617 28.826817 78.900391 30.015625 L 75.291016 30.015625 C 75.362633 27.179672 76.282867 25.206711 78.051758 24.09668 C 79.820648 22.986649 81.872383 22.431641 84.207031 22.431641 C 86.914078 22.431641 89.112625 22.947262 90.802734 23.978516 C 92.478523 25.009769 93.316406 26.613922 93.316406 28.791016 L 93.316406 42.046875 C 93.316406 42.447918 93.398766 42.77018 93.563477 43.013672 C 93.728188 43.257164 94.075516 43.378906 94.605469 43.378906 C 94.777344 43.378906 94.970703 43.368164 95.185547 43.34668 C 95.400391 43.325195 95.629555 43.292969 95.873047 43.25 L 95.873047 46.107422 C 95.271484 46.279297 94.813156 46.386719 94.498047 46.429688 C 94.182938 46.472656 93.753258 46.494141 93.208984 46.494141 C 91.876945 46.494141 90.910156 46.021488 90.308594 45.076172 C 89.993484 44.574867 89.771484 43.865891 89.642578 42.949219 C 88.854813 43.980476 87.723312 44.875648 86.248047 45.634766 C 84.772781 46.393883 83.147141 46.773438 81.371094 46.773438 C 79.236969 46.773438 77.493172 46.125332 76.139648 44.829102 C 74.786125 43.532871 74.109375 41.910816 74.109375 39.962891 C 74.109375 37.828766 74.775383 36.174484 76.107422 35 C 77.439461 33.825516 79.186836 33.102215 81.349609 32.830078 Z M 46.759766 14.439453 L 60.960938 14.439453 C 63.768242 14.439453 66.031242 15.230785 67.75 16.813477 C 69.468758 18.396168 70.328125 20.619778 70.328125 23.484375 C 70.328125 25.947929 69.561859 28.092766 68.029297 29.918945 C 66.496735 31.745125 64.14064 32.658203 60.960938 32.658203 L 51.035156 32.658203 L 51.035156 46 L 46.759766 46 Z M 66.009766 23.505859 C 66.009766 21.185535 65.150398 19.610031 63.431641 18.779297 C 62.48632 18.335285 61.190109 18.113281 59.542969 18.113281 L 51.035156 18.113281 L 51.035156 29.048828 L 59.542969 29.048828 C 61.46225 29.048828 63.019852 28.640629 64.21582 27.824219 C 65.411789 27.007809 66.009766 25.568371 66.009766 23.505859 Z"/>
        <path id="Path" fill="none" stroke="#ffffff" stroke-width="3" stroke-linecap="round" stroke-linejoin="round" d="M 47 31 L 34 31"/>
        <path id="path1" fill="none" stroke="#ffffff" stroke-width="3" stroke-linecap="round" stroke-linejoin="round" d="M 39 16.000046 L 63 16.000225"/>
        <path id="path2" fill="none" stroke="#ffffff" stroke-width="4" stroke-linecap="round" stroke-linejoin="round" d="M 38.999847 16.999897 L 26.000019 45.000004 L 38.999847 16.999897 L 38.999847 16.999897"/>
    </g>
</svg>
