<svg xmlns="http://www.w3.org/2000/svg" height="800" width="1200" viewBox="-62.4006 -25.52725 540.8052 153.1635"><defs><linearGradient id="A" spreadMethod="pad" gradientTransform="scale(8.58602 -8.58602) rotate(14.295 134.456 16.577)" gradientUnits="userSpaceOnUse" y2="0" x2="1" y1="0" x1="0"><stop offset="0" stop-color="#f2df8a"/><stop offset=".466" stop-color="#a26611"/><stop offset=".466" stop-color="#a26611"/><stop offset="1" stop-color="#f6c76d"/></linearGradient><linearGradient id="y" spreadMethod="pad" gradientTransform="matrix(.21 9.2071 9.2071 -.21 83.322 274.808)" gradientUnits="userSpaceOnUse" y2="0" x2="1" y1="0" x1="0"><stop offset="0" stop-color="#f2df8a"/><stop offset=".466" stop-color="#a26611"/><stop offset=".466" stop-color="#a26611"/><stop offset="1" stop-color="#f6c76d"/></linearGradient><linearGradient id="x" spreadMethod="pad" gradientTransform="matrix(.88007 8.29521 8.29521 -.88007 73.669 265.4)" gradientUnits="userSpaceOnUse" y2="0" x2="1" y1="0" x1="0"><stop offset="0" stop-color="#f2df8a"/><stop offset=".466" stop-color="#a26611"/><stop offset=".466" stop-color="#a26611"/><stop offset="1" stop-color="#f6c76d"/></linearGradient><linearGradient id="w" spreadMethod="pad" gradientTransform="scale(-7.8664 7.8664) rotate(-79.549 16.21 24.41)" gradientUnits="userSpaceOnUse" y2="0" x2="1" y1="0" x1="0"><stop offset="0" stop-color="#f3df80"/><stop offset=".522" stop-color="#fffded"/><stop offset="1" stop-color="#f6c76d"/></linearGradient><linearGradient id="v" spreadMethod="pad" gradientTransform="matrix(.49573 9.48337 9.48337 -.49573 73.873 264.547)" gradientUnits="userSpaceOnUse" y2="0" x2="1" y1="0" x1="0"><stop offset="0" stop-color="#f3df80"/><stop offset=".522" stop-color="#fffded"/><stop offset="1" stop-color="#f6c76d"/></linearGradient><linearGradient id="u" spreadMethod="pad" gradientTransform="matrix(9.21086 0 0 -9.21086 79.327 269.556)" gradientUnits="userSpaceOnUse" y2="0" x2="1" y1="0" x1="0"><stop offset="0" stop-color="#f2df8a"/><stop offset=".466" stop-color="#a26611"/><stop offset=".466" stop-color="#a26611"/><stop offset="1" stop-color="#f6c76d"/></linearGradient><linearGradient id="t" spreadMethod="pad" gradientTransform="matrix(-8.58493 0 0 8.58493 87.946 269.927)" gradientUnits="userSpaceOnUse" y2="0" x2="1" y1="0" x1="0"><stop offset="0" stop-color="#f3df80"/><stop offset=".522" stop-color="#fffded"/><stop offset="1" stop-color="#f6c76d"/></linearGradient><linearGradient id="s" spreadMethod="pad" gradientTransform="matrix(9.49529 0 0 -9.49529 68.93 278.684)" gradientUnits="userSpaceOnUse" y2="0" x2="1" y1="0" x1="0"><stop offset="0" stop-color="#f3df80"/><stop offset=".522" stop-color="#fffded"/><stop offset="1" stop-color="#f6c76d"/></linearGradient><linearGradient id="q" spreadMethod="pad" gradientTransform="scale(23.31676 -23.31676) rotate(29.443 24.305 -.355)" gradientUnits="userSpaceOnUse" y2="0" x2="1" y1="0" x1="0"><stop offset="0" stop-color="#d09f43"/><stop offset=".208" stop-color="#fffabe"/><stop offset=".466" stop-color="#f0b944"/><stop offset=".742" stop-color="#fff9ba"/><stop offset="1" stop-color="#d39542"/></linearGradient><linearGradient id="o" spreadMethod="pad" gradientTransform="scale(20.59628 -20.59628) rotate(80.449 10.017 -4.668)" gradientUnits="userSpaceOnUse" y2="0" x2="1" y1="0" x1="0"><stop offset="0" stop-color="#efbf5f"/><stop offset=".253" stop-color="#f4d767"/><stop offset=".253" stop-color="#f4d767"/><stop offset=".466" stop-color="#dfad3f"/><stop offset=".646" stop-color="#bf851a"/><stop offset=".888" stop-color="#f6d459"/><stop offset="1" stop-color="#c28031"/></linearGradient><linearGradient id="n" spreadMethod="pad" gradientTransform="matrix(0 6.62479 6.62479 0 78.86 268.611)" gradientUnits="userSpaceOnUse" y2="0" x2="1" y1="0" x1="0"><stop offset="0" stop-color="#af8718"/><stop offset=".242" stop-color="#dbc142"/><stop offset=".579" stop-color="#f4d793"/><stop offset="1" stop-color="#9a8016"/></linearGradient><linearGradient id="l" spreadMethod="pad" gradientTransform="scale(16.01587 -16.01587) rotate(-45.798 -17.545 -13.757)" gradientUnits="userSpaceOnUse" y2="0" x2="1" y1="0" x1="0"><stop offset="0" stop-color="#ebd47a"/><stop offset=".096" stop-color="#fffde7"/><stop offset=".466" stop-color="#e6903b"/><stop offset=".742" stop-color="#fff4c1"/><stop offset="1" stop-color="#b56324"/></linearGradient><linearGradient id="g" spreadMethod="pad" gradientTransform="scale(-19.39643 19.39643) rotate(-74.012 7.599 10.095)" gradientUnits="userSpaceOnUse" y2="0" x2="1" y1="0" x1="0"><stop offset="0" stop-color="#916e18"/><stop offset=".343" stop-color="#fff682"/><stop offset=".343" stop-color="#fff682"/><stop offset=".635" stop-color="#7a460b"/><stop offset=".831" stop-color="#eac35c"/><stop offset="1" stop-color="#a2761d"/></linearGradient><linearGradient id="e" spreadMethod="pad" gradientTransform="scale(25.66685 -25.66685) rotate(56.504 11.7 -2.903)" gradientUnits="userSpaceOnUse" y2="0" x2="1" y1="0" x1="0"><stop offset="0" stop-color="#cb962f"/><stop offset=".096" stop-color="#f2df8a"/><stop offset=".466" stop-color="#edad1f"/><stop offset=".742" stop-color="#f6c76d"/><stop offset="1" stop-color="#ce8a2e"/></linearGradient><linearGradient id="d" spreadMethod="pad" gradientTransform="scale(18.61143 -18.61143) rotate(42.397 21.365 -2.568)" gradientUnits="userSpaceOnUse" y2="0" x2="1" y1="0" x1="0"><stop offset="0" stop-color="#ffeea2"/><stop offset=".354" stop-color="#efb733"/><stop offset=".73" stop-color="#fed301"/><stop offset="1" stop-color="#93540b"/></linearGradient><clipPath id="z" clipPathUnits="userSpaceOnUse"><path d="M37.146 218.564h146.518v83.653H37.146z"/></clipPath><clipPath id="r" clipPathUnits="userSpaceOnUse"><path d="M37.146 218.564h146.518v83.653H37.146z"/></clipPath><clipPath id="p" clipPathUnits="userSpaceOnUse"><path d="M37.146 218.564h146.518v83.653H37.146z"/></clipPath><clipPath id="m" clipPathUnits="userSpaceOnUse"><path d="M37.146 218.564h146.518v83.653H37.146z"/></clipPath><clipPath id="k" clipPathUnits="userSpaceOnUse"><path d="M37.146 218.564h146.518v83.653H37.146z"/></clipPath><clipPath id="i" clipPathUnits="userSpaceOnUse"><path d="M37.146 218.564h146.518v83.653H37.146z"/></clipPath><clipPath id="h" clipPathUnits="userSpaceOnUse"><path d="M68.615 264.067h82.672v20.292H68.615z"/></clipPath><clipPath id="f" clipPathUnits="userSpaceOnUse"><path d="M37.146 218.564h146.518v83.653H37.146z"/></clipPath><clipPath id="c" clipPathUnits="userSpaceOnUse"><path d="M37.146 218.564h146.518v83.653H37.146z"/></clipPath><clipPath id="b" clipPathUnits="userSpaceOnUse"><path d="M68.615 264.067h82.672v20.292H68.615z"/></clipPath><clipPath id="a" clipPathUnits="userSpaceOnUse"><path d="M37.146 218.564h146.518v83.653H37.146z"/></clipPath><radialGradient id="j" spreadMethod="pad" gradientTransform="matrix(12.481 0 0 -12.481 78.745 268.206)" gradientUnits="userSpaceOnUse" r="1" cy="0" cx="0" fy="0" fx="0"><stop offset="0" stop-color="#036"/><stop offset="1" stop-color="#c4ccdf"/></radialGradient></defs><g clip-path="url(#a)" transform="matrix(5.032 0 0 -5.032 -345.272 1430.894)"><path d="M98.396 268.796l-4.414 9.226h-.035l-.467-7.79c-.052-.882.606-1.073 1.385-1.107v-.329h-3.601v.33c1.264 0 1.419.276 1.506 1.851l.415 6.734c.07 1.142.035 1.454-1.038 1.523v.312h2.614l4.172-8.725 4.154 8.725h2.545v-.312c-.848-.069-1.177-.086-1.143-.675l.554-7.84c.104-1.594.243-1.594 1.506-1.594v-.329H102.1v.33c.814 0 1.61.224 1.541 1.141l-.502 7.755h-.035l-4.31-9.226zm11.79 3.22a8.004 8.004 0 00-1.02-.485c-1.057-.433-1.455-.606-1.455-1.315 0-.624.502-1.022 1.021-1.022.277 0 .485.087 1.454.762zm-3.427 1.575a.674.674 0 00-.052.243c0 .605 1.436 2.008 2.562 2.008.52 0 1.333-.243 1.817-.918.26-.363.26-.589.26-1.489v-2.319c0-1.385 0-1.697.45-1.697.191 0 .415.018.848.381l.087-.259c-.935-.762-1.42-.953-1.714-.953-.71 0-.779.779-.796 1.056-1.195-.986-1.54-1.056-2.008-1.056-1.004 0-1.61.571-1.61 1.42 0 1.056.935 1.419 2.042 1.696.364.087.935.295 1.541.658v1.368c0 .484 0 .761-.294 1.107-.225.278-.589.502-.97.502-.57 0-1.073-.484-1.073-.848 0-.104.017-.173.087-.329z"/><path d="M114.671 270.302c0-.952.225-1.177 1.16-1.177v-.33h-3.48v.33c.762 0 1.16.416 1.16 1.09v3.636c0 .64-.069.76-.519.848l-.589.12v.278l1.991.727h.277v-1.35c1.16.727 2.13 1.368 2.977 1.368 1.177 0 1.853-.866 1.853-2.597 0-2.303-.122-2.752-.139-3.428-.017-.467.26-.692.97-.692h.38v-.33h-3.722v.33c.502.017.797.138.987.329.33.329.364 1.592.364 3.895 0 1.385-.675 1.818-1.368 1.818-.554 0-1.402-.485-2.302-1.108z"/><path d="M122.41 270.164c0-.814.226-1.04 1.126-1.04v-.328h-3.462v.329c.952.052 1.177.38 1.177 1.333v8.292c0 .38-.07.519-.433.57l-.744.105v.294l2.06.71h.277v-5.678c1.143.675 1.974 1.09 2.856 1.09 1.333 0 1.922-.83 1.922-2.578 0-1.576-.035-2.545-.087-3.48.035-.467.295-.658 1.316-.658v-.33h-3.74v.33c.45 0 .78.087.97.277.312.312.38 1.056.38 3.635 0 1.853-1.003 2.095-1.574 2.095-.571 0-1.195-.277-2.043-.814zm10.545 3.479c-.191 1.125-.883 1.87-1.714 1.87-.571 0-1.436-.26-1.835-1.87zm-3.601-.45c-.034-.26-.07-.502-.07-.727 0-1.8 1.265-3.012 2.632-3.012.866 0 1.54.346 2.199 1.125l.19-.208c-.727-.917-1.817-1.783-3.081-1.783-1.697 0-3.012 1.541-3.012 3.549 0 1.835 1.229 3.705 3.34 3.705 2.338 0 2.286-1.68 2.857-2.251v-.398z"/></g><g clip-path="url(#b)" transform="matrix(5.032 0 0 -5.032 -345.272 1430.894)"><path d="M136.228 279.823c.416 0 .762-.294.762-.658 0-.363-.346-.658-.762-.658-.415 0-.744.295-.744.658 0 .364.329.658.744.658m.71-9.711c0-.606.329-.987 1.246-.987v-.33h-3.843v.33c1.056 0 1.437.346 1.437 1.264v3.479c0 .675-.087.762-.537.848l-.813.156v.277l2.25.779h.26z"/><path d="M140.35 270.198c0-.9.242-1.074 1.212-1.074v-.328h-3.601v.328c1.004 0 1.229.451 1.229 1.333v3.393c0 .676-.104.831-.502.883l-.675.087v.294l2.077.727h.26v-1.385c1.246.883 2.389 1.385 3.08 1.385.849 0 1.473-.537 1.646-1.385 1.16.727 2.215 1.385 3.064 1.385 1.246 0 1.73-.952 1.73-2.614 0-1.107 0-2.268-.051-3.323 0-.364.208-.78.917-.78h.554v-.328h-3.895v.328h.156c.502 0 .727.087.883.243.26.26.277 1.264.277 2.458v1.35c0 1.333-.45 1.974-1.298 1.974-.537 0-1.23-.26-2.303-.97v-3.98c0-.867.208-1.075 1.073-1.075v-.328h-3.548v.328c.969 0 1.315.347 1.315 1.333v3.203c0 1.09-.675 1.49-1.281 1.49-.484 0-1.142-.226-2.32-1.006z"/></g><g clip-path="url(#c)" transform="matrix(5.032 0 0 -5.032 -345.272 1430.894)"><path d="M69.306 274.108c0-5.26 4.265-9.525 9.526-9.525a9.526 9.526 0 11-9.526 9.525" fill="#6e420b"/><path d="M69.094 274.32c0-5.26 4.265-9.525 9.526-9.525s9.527 4.265 9.527 9.525c0 5.26-4.266 9.526-9.527 9.526a9.526 9.526 0 01-9.526-9.526" fill="#fffde9"/></g><path d="M69.235 274.214a9.525 9.525 0 019.527-9.526 9.524 9.524 0 019.525 9.526 9.525 9.525 0 01-9.525 9.525c-5.262 0-9.527-4.265-9.527-9.525" fill="url(#d)" transform="matrix(5.032 0 0 -5.032 -345.272 1430.894)"/><path d="M69.665 274.214a9.096 9.096 0 019.097-9.097 9.097 9.097 0 010 18.194 9.097 9.097 0 01-9.097-9.097" fill="url(#e)" transform="matrix(5.032 0 0 -5.032 -345.272 1430.894)"/><g clip-path="url(#f)" transform="matrix(5.032 0 0 -5.032 -345.272 1430.894)"><path d="M69.664 274.214a9.097 9.097 0 019.098-9.097 9.097 9.097 0 010 18.194 9.097 9.097 0 01-9.098-9.097z" fill="none" stroke="#fed301" stroke-width=".068"/><path d="M78.75 266.894a7.32 7.32 0 100 14.637c3.749 0 7.32-3.425 7.32-7.317a7.32 7.32 0 00-7.32-7.32m0 15.563a8.245 8.245 0 110-16.49 8.245 8.245 0 010 16.49"/><path d="M78.75 266.894a7.32 7.32 0 100 14.637c3.749 0 7.32-3.425 7.32-7.317a7.32 7.32 0 00-7.32-7.32zm0 15.563a8.245 8.245 0 110-16.49 8.245 8.245 0 010 16.49z" fill="none" stroke="#f0e9b6" stroke-width=".11"/></g><path d="M68.651 274.214c0-5.585 4.526-10.112 10.111-10.112 5.583 0 10.11 4.527 10.11 10.112 0 5.583-4.527 10.11-10.11 10.11-5.585 0-10.111-4.527-10.111-10.11m1.214 0a8.897 8.897 0 008.897 8.896 8.897 8.897 0 000-17.793 8.898 8.898 0 00-8.897 8.897" fill="url(#g)" transform="matrix(5.032 0 0 -5.032 -345.272 1430.894)"/><g clip-path="url(#h)" transform="matrix(5.032 0 0 -5.032 -345.272 1430.894)"><path d="M78.762 265.318a8.896 8.896 0 100 17.793 8.897 8.897 0 000-17.793zm0 19.007c-5.585 0-10.111-4.527-10.111-10.111 0-5.584 4.526-10.111 10.11-10.111 5.585 0 10.112 4.527 10.112 10.11 0 5.585-4.527 10.112-10.111 10.112z" fill="none" stroke="#9e6606" stroke-width=".071"/></g><g clip-path="url(#i)" transform="matrix(5.032 0 0 -5.032 -345.272 1430.894)"><path d="M84.016 279.3c1.306-1.31 2.312-3.055 2.312-5.053 0-1.295-.796-2.68-1.391-3.734.595 1.053 1.22 2.484 1.22 3.78 0 1.996-1.008 3.738-2.314 5.05zm-1.078-11.011s-.222-.131-.218-.174c-1.154-.773-2.387-1.072-3.88-1.072 1.988-.181 3.339.526 3.684.785.345.258.414.461.414.461" fill="#fffcdb"/></g><path d="M71.959 274.292a6.788 6.788 0 016.788-6.787c2.985 0 6.851 2.456 6.851 6.787 0 3.572-3.456 6.786-6.851 6.786a6.787 6.787 0 01-6.788-6.786" fill="url(#j)" transform="matrix(5.032 0 0 -5.032 -345.272 1430.894)"/><g clip-path="url(#k)" transform="matrix(5.032 0 0 -5.032 -345.272 1430.894)"><path d="M79.265 274.086s-.793 2.487-1.677 6.053c.476.105.904.16 1.413.16.64 0 1.264-.088 1.853-.256a170.302 170.302 0 00-1.59-5.957m6.05 1.923a6.808 6.808 0 01-4.302 4.682 6.774 6.774 0 01-2.265.388 6.785 6.785 0 01-4.297-1.532 6.772 6.772 0 01-2.491-5.254c0-.882.168-1.724.474-2.496a6.84 6.84 0 00-.22 1.716c0 1.9.782 3.618 2.04 4.85-.3-1.854-.746-4.962-.982-8.082a6.826 6.826 0 012.347-2.014v-.026c.085 1.397.284 4.336.664 8.07 0 0 1.06-5.213 2.157-8.63h1.504c1.402 4.126 2.33 8.542 2.33 8.542.326-3.201.393-5.871.494-7.434.92.719 2.038 2.203 2.49 3.296a79.252 79.252 0 01-.644 5.19 7.03 7.03 0 00.702-1.266" fill="#003265"/></g><path d="M69.727 274.214a9.02 9.02 0 1118.038 0c0 4.802-4.391 9.018-9.018 9.018-4.982 0-9.02-4.039-9.02-9.018m2.232.078a6.77 6.77 0 006.788 6.786c3.407 0 6.825-2.985 6.851-6.786.032-4.341-3.855-6.787-6.851-6.787a6.771 6.771 0 00-6.788 6.787" fill="url(#l)" transform="matrix(5.032 0 0 -5.032 -345.272 1430.894)"/><g clip-path="url(#m)" transform="matrix(5.032 0 0 -5.032 -345.272 1430.894)"><path d="M78.747 267.505a6.772 6.772 0 00-6.788 6.787 6.772 6.772 0 006.788 6.786c3.407 0 6.825-2.986 6.85-6.786.033-4.342-3.854-6.787-6.85-6.787zm0 15.726c-4.982 0-9.021-4.038-9.021-9.017a9.02 9.02 0 1118.04 0c0 4.802-4.392 9.017-9.02 9.017z" fill="none" stroke="#65501b" stroke-width=".129"/></g><path d="M79.125 274.291s-.928 2.728-1.924 6.567l-.385.396-2.712-.985s-1.019-5.087-1.398-10.173l2.105-1.829.432.187c.092 1.427.307 4.329.705 7.999 0 0 1.133-5.297 2.213-8.476l1.561-.025c1.079 3.177 2.494 8.412 2.494 8.412.573-5.276.764-8.964.764-8.964l1.958 3.114c.022.453.077.846.077.846-.233 2.178-.546 5.308-.793 6.784 0 0-.355.935-.451 1.221-.179.547.12.836.12.836l-2.665 1.53c-1.08-4.324-2.101-7.44-2.101-7.44" fill="url(#n)" transform="matrix(5.032 0 0 -5.032 -345.272 1430.894)"/><path d="M70.154 274.292a8.686 8.686 0 018.686-8.688 8.687 8.687 0 018.69 8.688c0 4.621-4.242 8.688-8.69 8.688a8.686 8.686 0 01-8.686-8.688m6.662 6.962a7.267 7.267 0 004.05 0l.189-.067c-1.183-3.859-2.165-7.298-2.165-7.298s-1.04 3.32-2.074 7.365m-5.224-6.962c0 1.997.809 3.806 2.114 5.116l.203.143c-.292-1.725-.947-5.741-1.235-9.159-.593 1.052-1.082 2.606-1.082 3.9m13.274-3.918c-.285 3.353-.867 7.401-1.161 9.092-.007.046.032-.007.071-.06.037-.051.073-.104.067-.063 1.306-1.311 2.314-3.054 2.314-5.051 0-1.294-.625-2.725-1.219-3.778-.003.024-.02-.023-.036-.07-.013-.039-.027-.077-.033-.077-.001 0-.002.002-.003.007m-10.055-2.107c.078 1.28.328 4.726.757 8.692 0 0 1.638-5.562 2.72-8.741h1.254a324.695 324.695 0 012.616 8.664c.398-3.65.428-6.716.52-8.15.005-.073.26-.443.26-.443s-.222-.131-.218-.174c-1.155-.773-2.387-1.072-3.88-1.072-1.49 0-2.876.451-4.029 1.224" fill="url(#o)" transform="matrix(5.032 0 0 -5.032 -345.272 1430.894)"/><g clip-path="url(#p)" transform="matrix(5.032 0 0 -5.032 -345.272 1430.894)"><path d="M72.674 270.393c.364 3.709 1.03 7.762 1.235 9.158l-.333-.887a97.806 97.806 0 01-.99-7.265z" fill="#ffe694"/><path d="M75.569 276.958s1.638-5.562 2.719-8.74l-.127-.242c-.78 2.295-1.802 5.761-2.311 7.511-.11.441-.19.855-.19.855z" fill="#f7eab1"/><path d="M78.89 273.89s1.082 3.321 2.165 7.297l-.31-.41a107.01 107.01 0 00-1.758-6.047zm3.269 2.992c.43-3.965.7-7.314.779-8.593l-.26.442a192.925 192.925 0 01-.611 7.03z" fill="#ffe694"/><path d="M81.055 281.187c-.472.223-1.248.478-2.308.443-.704-.023-1.187-.079-1.931-.377a7.231 7.231 0 002.024.287c.706 0 1.572-.166 2.215-.353" fill="#fffcd7"/><path d="M72.835 270.775l-.161-.382c.365 3.709 1.031 7.76 1.235 9.158 0 0-.303-3.018-1.074-8.776m3.051 5.021l2.322-7.35c-.515 2.792-2.322 7.35-2.322 7.35m6.424-.016c.283-2.962.6-7.093.6-7.093.173 3.568-.6 7.092-.6 7.092m-11.893.817s.038-.034 0 0c.915 2.21 1.599 3.068 2.89 4.323l-.358-.287c-1.874-1.515-2.451-3.524-2.532-4.036-.082-.512 0 0 0 0m10.623 4.32c-.257-2.15-2.15-7.026-2.15-7.026z" fill="#fffcdb"/><path d="M74.855 268.668c.172 2.665.645 7.523.645 7.523-.773-4.772-.645-7.523-.645-7.523m9.951 1.846c-.414 5.18-.8 7.028-.8 7.028s.429-5.115.516-5.672c.085-.561.284-1.356.284-1.356m-5.264-2.296c.556 1.652 2.36 7.542 2.36 7.542-1.588-4.428-2.36-7.542-2.36-7.542" fill="#b38f18"/></g><path d="M68.955 274.197c0-5.453 4.391-9.872 9.808-9.872s9.807 4.419 9.807 9.872c0 5.451-4.39 9.872-9.807 9.872-5.417 0-9.808-4.421-9.808-9.872m.633 0c0 5.099 4.108 9.234 9.175 9.234 5.067 0 9.173-4.135 9.173-9.234 0-5.102-4.106-9.234-9.173-9.234s-9.175 4.132-9.175 9.234" fill="url(#q)" transform="matrix(5.032 0 0 -5.032 -345.272 1430.894)"/><g clip-path="url(#r)" transform="matrix(5.032 0 0 -5.032 -345.272 1430.894)"><path d="M78.763 264.963c-5.067 0-9.175 4.133-9.175 9.234 0 5.1 4.108 9.234 9.175 9.234 5.067 0 9.174-4.134 9.174-9.234 0-5.101-4.107-9.234-9.174-9.234zm0 19.106c-5.417 0-9.807-4.421-9.807-9.872 0-5.452 4.39-9.872 9.807-9.872 5.417 0 9.807 4.42 9.807 9.872 0 5.45-4.39 9.872-9.807 9.872z" fill="none" stroke="#fed301" stroke-width=".068"/></g><path d="M78.259 284.139a9.897 9.897 0 01-6.87-3.392c-1.767-2.021-2.625-4.527-2.459-7.216.002-.031.044-.307.076-.305.03.001.017.194.014.225a9.968 9.968 0 002.454 7.219c1.746 1.997 4.151 3.256 6.786 3.421.031.002.167-.002.165.031-.001.016-.039.021-.078.021-.036 0-.074-.004-.088-.004" fill="url(#s)" transform="matrix(5.032 0 0 -5.032 -345.272 1430.894)"/><path d="M87.864 274.658a9.003 9.003 0 00-2.218-6.527c-1.579-1.806-3.754-2.943-6.135-3.094-.028-.001-.153.003-.15-.026.001-.03.122-.018.151-.016a8.947 8.947 0 016.211 3.066 8.908 8.908 0 012.222 6.524c-.001.03-.04.277-.068.277-.028-.001-.015-.176-.013-.204" fill="url(#t)" transform="matrix(5.032 0 0 -5.032 -345.272 1430.894)"/><path d="M88.502 274.806c-.032-.002-.037-.081-.034-.112a9.647 9.647 0 00-2.412-7.03c-1.716-1.945-4.062-3.116-6.652-3.277-.03-.002-.078-.017-.076-.049.001-.031.039-.033.069-.031 2.619.163 5.008 1.315 6.744 3.283 1.736 1.967 2.56 4.518 2.397 7.135-.002.032-.005.081-.033.081h-.003" fill="url(#u)" transform="matrix(5.032 0 0 -5.032 -345.272 1430.894)"/><path d="M68.913 274.149a9.895 9.895 0 013.028-7.038c1.926-1.869 4.384-2.858 7.078-2.832.032 0 .31.028.309.059 0 .032-.195.027-.225.027a9.968 9.968 0 00-7.081 2.827c-1.903 1.849-3.033 4.316-3.061 6.954-.001.033.009.169-.023.169-.031-.001-.026-.135-.025-.166" fill="url(#v)" transform="matrix(5.032 0 0 -5.032 -345.272 1430.894)"/><path d="M79.511 283.426c-.002-.028.174-.048.203-.052a9.296 9.296 0 006.14-3.414c1.353-1.685 2.093-3.737 2.046-5.845-.005-.267.043-.214.048.082.039 2.102-.661 4.143-2.011 5.826-1.543 1.922-3.674 3.113-6.138 3.418a1.385 1.385 0 01-.131.005c-.076 0-.155-.005-.157-.02" fill="url(#w)" transform="matrix(5.032 0 0 -5.032 -345.272 1430.894)"/><path d="M72.029 267.809a8.912 8.912 0 016.252-2.898c.029-.001.281.011.282.039.002.029-.173.034-.203.034a9.014 9.014 0 00-6.255 2.895c-1.629 1.76-2.542 3.951-2.44 6.335-.103-2.411.716-4.624 2.364-6.405" fill="url(#x)" transform="matrix(5.032 0 0 -5.032 -345.272 1430.894)"/><path d="M78.363 284.134c-.032-.002-.083-.004-.081-.036.001-.03.08-.036.111-.035a9.647 9.647 0 006.974-2.571c1.904-1.761 3.022-4.133 3.125-6.725.001-.031.015-.079.046-.078.031.002.036.038.034.069-.104 2.622-1.202 5.036-3.129 6.816-1.826 1.687-4.194 2.568-6.667 2.568-.138 0-.275-.003-.413-.008" fill="url(#y)" transform="matrix(5.032 0 0 -5.032 -345.272 1430.894)"/><g clip-path="url(#z)" transform="matrix(5.032 0 0 -5.032 -345.272 1430.894)"><path d="M77.364 265.087c-4.856.747-8.204 5.65-7.457 10.507.747 4.857 5.41 8.494 10.266 7.748-5.008.77-9.697-2.693-10.472-7.733-.776-5.04 2.655-9.751 7.663-10.522" fill="#9e6606"/><path d="M87.84 272.801c.775 5.04-2.655 9.751-7.664 10.522 4.857-.748 8.21-5.618 7.463-10.474-.746-4.856-5.414-8.529-10.27-7.78 5.007-.77 9.696 2.69 10.471 7.732" fill="#fffbca"/></g><path d="M73.499 281.893a8.915 8.915 0 01-3.765-5.773c-.006-.027-.03-.279-.002-.284.028-.005.059.167.064.195a9.006 9.006 0 003.761 5.776c1.976 1.36 4.364 1.925 6.709 1.482.028-.005.147-.038.153-.01.004.028-.116.047-.144.053a8.964 8.964 0 01-6.776-1.439" fill="url(#A)" transform="matrix(5.032 0 0 -5.032 -345.272 1430.894)"/></svg>